<svg width="16" height="16" viewBox="0 0 16 16" fill="none" xmlns="http://www.w3.org/2000/svg">
  <path d="M13.8012 4.72757C13.6694 4.49931 13.4791 4.31031 13.25 4.18H13.272L8.772 1.52667C8.54231 1.40002 8.28429 1.33361 8.022 1.33361C7.75971 1.33361 7.50169 1.40002 7.272 1.52667L2.772 4.18C2.29533 4.442 2 4.93867 2 5.478V10.3347C2.00053 10.6004 2.07247 10.8612 2.20827 11.0897C2.34408 11.3181 2.53878 11.5059 2.772 11.6333L7.272 14.48C7.4951 14.6025 7.74549 14.6667 8 14.6667C8.25451 14.6667 8.5049 14.6025 8.728 14.48L13.228 11.6333C13.7047 11.3713 14 10.874 14 10.3347V5.47867C14.0016 5.21509 13.933 4.95583 13.8012 4.72757Z" stroke="white" stroke-width="1.5" stroke-linecap="round" stroke-linejoin="round"/>
  <path d="M6 8C6 8.53043 6.21071 9.03914 6.58579 9.41421C6.96086 9.78929 7.46957 10 8 10C8.53043 10 9.03914 9.78929 9.41421 9.41421C9.78929 9.03914 10 8.53043 10 8C10 7.46957 9.78929 6.96086 9.41421 6.58579C9.03914 6.21071 8.53043 6 8 6C7.46957 6 6.96086 6.21071 6.58579 6.58579C6.21071 6.96086 6 7.46957 6 8Z" stroke="white" stroke-width="1.5" stroke-linecap="round" stroke-linejoin="round"/>
</svg>
