<svg width="16" height="16" viewBox="0 0 16 16" fill="none" xmlns="http://www.w3.org/2000/svg">
<path d="M14.573 11.4993L9.49978 2.70596C9.34384 2.44048 9.12124 2.22037 8.85404 2.06743C8.58684 1.91448 8.28431 1.83403 7.97644 1.83403C7.66858 1.83403 7.36598 1.91448 7.09878 2.06743C6.83158 2.22037 6.60901 2.44048 6.45308 2.70596L1.37976 11.4993C1.22263 11.7659 1.13977 12.0698 1.13977 12.3793C1.13977 12.6888 1.22263 12.9927 1.37976 13.2593C1.53612 13.5389 1.76688 13.7696 2.04642 13.9259C2.31393 14.081 2.61723 14.1637 2.92643 14.1659H13.0798C13.3884 14.1658 13.6916 14.0853 13.9598 13.9326C14.2393 13.7763 14.47 13.5455 14.6264 13.2659C14.7796 12.9979 14.8602 12.6946 14.8602 12.3859C14.8602 12.0773 14.7796 11.8435 14.6264 11.5755L14.573 11.4993ZM7.30644 5.03262C7.30644 4.8558 7.37664 4.68624 7.50164 4.56121C7.62671 4.43619 7.79631 4.36595 7.97311 4.36595C8.14991 4.36595 8.31944 4.43619 8.44451 4.56121C8.56951 4.68624 8.63978 4.8558 8.63978 5.03262V9.21927C8.63978 9.39607 8.56951 9.56567 8.44451 9.69067C8.31944 9.81574 8.14991 9.88594 7.97311 9.88594C7.79631 9.88594 7.62671 9.81574 7.50164 9.69067C7.37664 9.56567 7.30644 9.39607 7.30644 9.21927V5.03262ZM8.00644 12.3659C7.84158 12.3659 7.68051 12.3171 7.54344 12.2255C7.40644 12.1339 7.29958 12.0038 7.23651 11.8515C7.17344 11.6993 7.15691 11.5317 7.18911 11.3701C7.22124 11.2084 7.30058 11.0599 7.41718 10.9433C7.53371 10.8268 7.68218 10.7475 7.84384 10.7153C8.00551 10.6831 8.17304 10.6997 8.32531 10.7627C8.47758 10.8258 8.60771 10.9326 8.69931 11.0697C8.79084 11.2067 8.83978 11.3678 8.83978 11.5326C8.83978 11.6426 8.81798 11.7515 8.77564 11.8531C8.73338 11.9546 8.67144 12.0468 8.59331 12.1243C8.51524 12.2017 8.42258 12.2629 8.32071 12.3045C8.21884 12.3459 8.10978 12.3668 7.99978 12.3659H8.00644Z" fill="#F03F38" style="fill:#F03F38;fill:color(display-p3 0.9416 0.2457 0.2208);fill-opacity:1;"/>
<path d="M7.30647 5.03262C7.30647 4.85581 7.37667 4.68624 7.50167 4.56121C7.62673 4.43619 7.79633 4.36595 7.97313 4.36595C8.14993 4.36595 8.31947 4.43619 8.44453 4.56121C8.56953 4.68624 8.6398 4.85581 8.6398 5.03262V9.21927C8.6398 9.39607 8.56953 9.56567 8.44453 9.69067C8.31947 9.81574 8.14993 9.88594 7.97313 9.88594C7.79633 9.88594 7.62673 9.81574 7.50167 9.69067C7.37667 9.56567 7.30647 9.39607 7.30647 9.21927V5.03262Z" fill="white" style="fill:white;fill-opacity:1;"/>
<path d="M8.00647 12.3659C7.8416 12.3659 7.68053 12.3171 7.54347 12.2255C7.40647 12.1339 7.2996 12.0038 7.23653 11.8515C7.17347 11.6993 7.15693 11.5317 7.18913 11.3701C7.22127 11.2084 7.3006 11.0599 7.4172 10.9433C7.53373 10.8268 7.6822 10.7475 7.84387 10.7153C8.00553 10.6831 8.17307 10.6997 8.32533 10.7627C8.4776 10.8258 8.60773 10.9326 8.69933 11.0697C8.79087 11.2067 8.8398 11.3678 8.8398 11.5326C8.8398 11.6426 8.818 11.7515 8.77567 11.8531C8.7334 11.9546 8.67147 12.0468 8.59333 12.1243C8.51527 12.2017 8.4226 12.2629 8.32073 12.3045C8.21887 12.3459 8.1098 12.3668 7.9998 12.3659H8.00647Z" fill="white" style="fill:white;fill-opacity:1;"/>
</svg>
