<svg width="16" height="16" viewBox="0 0 16 16" fill="none" xmlns="http://www.w3.org/2000/svg">
<path d="M7.97329 1.1667C6.62294 1.17197 5.30441 1.5772 4.18419 2.33125C3.06397 3.08531 2.19228 4.15437 1.67917 5.40346C1.16605 6.65254 1.03453 8.02567 1.3012 9.34941C1.56787 10.6732 2.22079 11.8883 3.1775 12.8413C4.13421 13.7943 5.35182 14.4425 6.67663 14.7039C8.00143 14.9655 9.37403 14.8286 10.6211 14.3106C11.8682 13.7927 12.9338 12.9168 13.6835 11.7936C14.4332 10.6705 14.8333 9.35041 14.8333 8.00001C14.8324 7.10067 14.6542 6.2103 14.3088 5.3799C13.9634 4.54949 13.4577 3.79535 12.8205 3.16064C12.1833 2.52593 11.4272 2.02313 10.5955 1.68099C9.76369 1.33884 8.87263 1.16407 7.97329 1.1667ZM11.5 8.66667H8.64663V11.5133C8.64663 11.6901 8.57636 11.8597 8.45136 11.9848C8.32636 12.1098 8.15676 12.18 7.97996 12.18C7.80316 12.18 7.63356 12.1098 7.50856 11.9848C7.38356 11.8597 7.31329 11.6901 7.31329 11.5133V8.66667H4.45997C4.28316 8.66667 4.11358 8.59647 3.98855 8.47141C3.86353 8.34641 3.7933 8.17687 3.7933 8.00001C3.7933 7.82321 3.86353 7.65367 3.98855 7.52861C4.11358 7.40361 4.28316 7.33334 4.45997 7.33334H7.31329V4.45337C7.31329 4.27655 7.38356 4.10699 7.50856 3.98197C7.63356 3.85695 7.80316 3.7867 7.97996 3.7867C8.15676 3.7867 8.32636 3.85695 8.45136 3.98197C8.57636 4.10699 8.64663 4.27655 8.64663 4.45337V7.30667H11.5C11.6768 7.30667 11.8464 7.37694 11.9714 7.50194C12.0964 7.62701 12.1666 7.79654 12.1666 7.97334C12.1666 8.15021 12.0964 8.31974 11.9714 8.44481C11.8464 8.56981 11.6768 8.64001 11.5 8.64001V8.66667Z" fill="white" style="fill:white;fill-opacity:1;"/>
</svg>
